<svg width="401" height="361" viewBox="0 0 401 361" fill="none" xmlns="http://www.w3.org/2000/svg">
<path fill-rule="evenodd" clip-rule="evenodd" d="M307.433 227.296L401 294.148L307.433 361V227.296Z" fill="#54F4FC"/>
<path d="M242.872 200.556L208.253 235.185L227.233 254.037L280.7 200.556L227.233 147.074L208.253 165.926L242.872 200.556ZM131.394 200.556L166.014 165.926L147.033 147.074L93.5667 200.556L147.033 254.037L166.014 235.185L131.394 200.556Z" fill="#54F4FC"/>
<path d="M93.5667 66.8518C100.949 66.8518 106.933 60.8657 106.933 53.4815C106.933 46.0972 100.949 40.1111 93.5667 40.1111C86.1845 40.1111 80.2 46.0972 80.2 53.4815C80.2 60.8657 86.1845 66.8518 93.5667 66.8518Z" fill="#54F4FC"/>
<path d="M53.4667 66.8518C60.8489 66.8518 66.8333 60.8657 66.8333 53.4815C66.8333 46.0972 60.8489 40.1111 53.4667 40.1111C46.0845 40.1111 40.1 46.0972 40.1 53.4815C40.1 60.8657 46.0845 66.8518 53.4667 66.8518Z" fill="#54F4FC"/>
<path d="M253.967 294.148H26.7333V106.963H347.533V200.556H374.267V26.7407C374.267 12.0066 362.277 0 347.533 0H26.7333C11.9899 0 0 12.0066 0 26.7407V294.148C0 308.896 11.9899 320.889 26.7333 320.889H253.967V294.148ZM26.7333 26.7407H347.533V80.2222H26.7333V26.7407Z" fill="#54F4FC"/>
</svg>
