<svg width="36" height="35" viewBox="0 0 36 35" fill="none" xmlns="http://www.w3.org/2000/svg">
<path d="M18.4742 1C22.7627 4.78872 28.3599 6.76137 34.0799 6.5C34.9127 9.32886 35.1675 12.296 34.8292 15.2252C34.4909 18.1543 33.5664 20.9857 32.1106 23.551C30.6549 26.1163 28.6976 28.3632 26.355 30.1582C24.0124 31.9532 21.3324 33.2597 18.4742 34C15.616 33.2597 12.936 31.9532 10.5935 30.1582C8.25092 28.3632 6.2936 26.1163 4.83785 23.551C3.38209 20.9857 2.4576 18.1543 2.11931 15.2252C1.78102 12.296 2.03583 9.32886 2.86861 6.5C8.58858 6.76137 14.1858 4.78872 18.4742 1Z" fill="#54F4FC" fill-opacity="0.36" stroke="#54F4FC" stroke-opacity="0.87" stroke-width="2" stroke-linecap="round" stroke-linejoin="round"/>
<path d="M16.7773 10.8149L16.7659 10.8168L16.6986 10.8499L16.6796 10.8537L16.6664 10.8499L16.5991 10.8158C16.589 10.8133 16.5814 10.8152 16.5763 10.8215L16.5725 10.831L16.5564 11.2367L16.5612 11.2557L16.5706 11.268L16.6692 11.3381L16.6834 11.3419L16.6948 11.3381L16.7934 11.268L16.8048 11.2528L16.8086 11.2367L16.7925 10.8319C16.7899 10.8218 16.7849 10.8161 16.7773 10.8149ZM17.0275 10.7077L17.0143 10.7096L16.8399 10.7978L16.8304 10.8073L16.8275 10.8177L16.8446 11.2253L16.8493 11.2367L16.8569 11.2443L17.0474 11.3315C17.0595 11.3346 17.0686 11.3321 17.0749 11.3239L17.0787 11.3106L17.0465 10.7286C17.0433 10.7166 17.037 10.7096 17.0275 10.7077ZM16.3498 10.7096C16.3456 10.7071 16.3406 10.7063 16.3358 10.7073C16.3311 10.7084 16.3269 10.7113 16.3242 10.7153L16.3185 10.7286L16.2863 11.3106C16.2869 11.322 16.2923 11.3296 16.3024 11.3334L16.3166 11.3315L16.5071 11.2433L16.5166 11.2357L16.5194 11.2253L16.5365 10.8177L16.5337 10.8063L16.5242 10.7968L16.3498 10.7096Z" fill="#54F4FC" fill-opacity="0.87"/>
<path d="M16.3158 9.95744C16.8826 8.29855 19.1747 8.24831 19.8468 9.80672L19.9037 9.95839L20.6687 12.1955C20.844 12.7086 21.1273 13.1781 21.4995 13.5723C21.8717 13.9666 22.3241 14.2764 22.8262 14.481L23.0319 14.5578L25.269 15.3218C26.9279 15.8887 26.9782 18.1808 25.4207 18.8529L25.269 18.9098L23.0319 19.6747C22.5187 19.8499 22.049 20.1332 21.6546 20.5054C21.2601 20.8776 20.9501 21.33 20.7455 21.8323L20.6687 22.037L19.9046 24.2751C19.3378 25.934 17.0457 25.9842 16.3745 24.4268L16.3158 24.2751L15.5517 22.038C15.3765 21.5247 15.0933 21.055 14.7211 20.6606C14.3489 20.2662 13.8964 19.9562 13.3942 19.7515L13.1895 19.6747L10.9523 18.9107C9.29248 18.3438 9.24224 16.0517 10.8007 15.3806L10.9523 15.3218L13.1895 14.5578C13.7025 14.3825 14.172 14.0992 14.5663 13.727C14.9605 13.3548 15.2704 12.9024 15.4749 12.4003L15.5517 12.1955L16.3158 9.95744Z" fill="#54F4FC" fill-opacity="0.87"/>
</svg>
