<svg width="218" height="67" viewBox="0 0 218 67" fill="none" xmlns="http://www.w3.org/2000/svg">
<path d="M45.648 50V17.072H55.488L60.672 35.408C60.864 36.048 61.056 36.768 61.248 37.568C61.44 38.368 61.616 39.136 61.776 39.872C61.968 40.608 62.112 41.248 62.208 41.792H62.592C62.656 41.312 62.752 40.72 62.88 40.016C63.008 39.312 63.152 38.56 63.312 37.76C63.504 36.928 63.712 36.128 63.936 35.36L69.12 17.072H78.864V50H72.624V33.344C72.624 31.872 72.64 30.4 72.672 28.928C72.704 27.456 72.736 26.192 72.768 25.136C72.832 24.08 72.864 23.456 72.864 23.264H72.48C72.416 23.552 72.256 24.176 72 25.136C71.744 26.096 71.472 27.136 71.184 28.256C70.896 29.376 70.64 30.336 70.416 31.136L64.992 50H59.232L53.808 31.184C53.616 30.512 53.392 29.712 53.136 28.784C52.912 27.824 52.672 26.848 52.416 25.856C52.192 24.864 51.984 24 51.792 23.264H51.408C51.44 24.128 51.472 25.168 51.504 26.384C51.536 27.568 51.568 28.784 51.6 30.032C51.632 31.248 51.648 32.352 51.648 33.344V50H45.648ZM82.74 50L95.556 17.072H103.428L116.292 50H109.524L106.884 42.992H91.812L89.172 50H82.74ZM93.78 37.712H104.868L101.556 28.784C101.428 28.464 101.268 28.064 101.076 27.584C100.916 27.072 100.74 26.528 100.548 25.952C100.356 25.344 100.164 24.736 99.972 24.128C99.78 23.52 99.604 22.976 99.444 22.496H99.204C99.012 23.136 98.772 23.872 98.484 24.704C98.228 25.536 97.972 26.32 97.716 27.056C97.46 27.792 97.252 28.368 97.092 28.784L93.78 37.712ZM120.179 50V17.072H126.419V44.576H142.931V50H120.179ZM152.074 50L140.074 17.072H146.842L154.666 39.728C154.794 40.048 154.922 40.416 155.05 40.832C155.178 41.248 155.306 41.648 155.434 42.032C155.562 42.384 155.674 42.704 155.77 42.992H156.01C156.106 42.736 156.202 42.432 156.298 42.08C156.426 41.728 156.554 41.36 156.682 40.976C156.81 40.56 156.938 40.16 157.066 39.776L164.842 17.072H171.322L159.322 50H152.074ZM174.917 20.864V15.296H180.773V20.864H174.917ZM174.917 50V24.752H180.773V50H174.917ZM185.283 50V47.024L202.851 22.4H186.531V17.072H212.115V20.096L194.547 44.672H212.547V50H185.283Z" fill="#54F4FC"/>
<path d="M18.4742 17C22.7627 20.7887 28.3599 22.7614 34.0799 22.5C34.9127 25.3289 35.1675 28.296 34.8292 31.2252C34.4909 34.1543 33.5664 36.9857 32.1106 39.551C30.6549 42.1163 28.6976 44.3632 26.355 46.1582C24.0124 47.9532 21.3324 49.2597 18.4742 50C15.616 49.2597 12.936 47.9532 10.5935 46.1582C8.25092 44.3632 6.2936 42.1163 4.83785 39.551C3.38209 36.9857 2.4576 34.1543 2.11931 31.2252C1.78102 28.296 2.03583 25.3289 2.86861 22.5C8.58858 22.7614 14.1858 20.7887 18.4742 17Z" fill="#54F4FC" fill-opacity="0.36" stroke="#54F4FC" stroke-opacity="0.87" stroke-width="2" stroke-linecap="round" stroke-linejoin="round"/>
<path d="M16.7773 26.8149L16.7659 26.8168L16.6986 26.8499L16.6796 26.8537L16.6664 26.8499L16.5991 26.8158C16.589 26.8133 16.5814 26.8152 16.5763 26.8215L16.5725 26.831L16.5564 27.2367L16.5612 27.2557L16.5706 27.268L16.6692 27.3381L16.6834 27.3419L16.6948 27.3381L16.7934 27.268L16.8048 27.2528L16.8086 27.2367L16.7925 26.8319C16.7899 26.8218 16.7849 26.8161 16.7773 26.8149ZM17.0275 26.7077L17.0143 26.7096L16.8399 26.7978L16.8304 26.8073L16.8275 26.8177L16.8446 27.2253L16.8493 27.2367L16.8569 27.2443L17.0474 27.3315C17.0595 27.3346 17.0686 27.3321 17.0749 27.3239L17.0787 27.3106L17.0465 26.7286C17.0433 26.7166 17.037 26.7096 17.0275 26.7077ZM16.3498 26.7096C16.3456 26.7071 16.3406 26.7063 16.3358 26.7073C16.3311 26.7084 16.3269 26.7113 16.3242 26.7153L16.3185 26.7286L16.2863 27.3106C16.2869 27.322 16.2923 27.3296 16.3024 27.3334L16.3166 27.3315L16.5071 27.2433L16.5166 27.2357L16.5194 27.2253L16.5365 26.8177L16.5337 26.8063L16.5242 26.7968L16.3498 26.7096Z" fill="#54F4FC" fill-opacity="0.87"/>
<path d="M16.3158 25.9574C16.8826 24.2986 19.1747 24.2483 19.8468 25.8067L19.9037 25.9584L20.6687 28.1955C20.844 28.7086 21.1273 29.1781 21.4995 29.5723C21.8717 29.9666 22.3241 30.2764 22.8262 30.481L23.0319 30.5578L25.269 31.3218C26.9279 31.8887 26.9782 34.1808 25.4207 34.8529L25.269 34.9098L23.0319 35.6747C22.5187 35.8499 22.049 36.1332 21.6546 36.5054C21.2601 36.8776 20.9501 37.33 20.7455 37.8323L20.6687 38.037L19.9046 40.2751C19.3378 41.934 17.0457 41.9842 16.3745 40.4268L16.3158 40.2751L15.5517 38.038C15.3765 37.5247 15.0933 37.055 14.7211 36.6606C14.3489 36.2662 13.8964 35.9562 13.3942 35.7515L13.1895 35.6747L10.9523 34.9107C9.29248 34.3438 9.24224 32.0517 10.8007 31.3806L10.9523 31.3218L13.1895 30.5578C13.7025 30.3825 14.172 30.0992 14.5663 29.727C14.9605 29.3548 15.2704 28.9024 15.4749 28.4003L15.5517 28.1955L16.3158 25.9574Z" fill="#54F4FC" fill-opacity="0.87"/>
</svg>
